<svg width="1200" height="630" viewBox="0 0 1200 630" xmlns="http://www.w3.org/2000/svg">
  <defs>
    <linearGradient id="bgGradient" x1="0%" y1="0%" x2="100%" y2="100%">
      <stop offset="0%" style="stop-color:#000000"/>
      <stop offset="100%" style="stop-color:#0a0a0a"/>
    </linearGradient>
    <linearGradient id="accentGradient" x1="0%" y1="0%" x2="100%" y2="0%">
      <stop offset="0%" style="stop-color:#00ff9f"/>
      <stop offset="100%" style="stop-color:#00cc7f"/>
    </linearGradient>
  </defs>

  <!-- Background -->
  <rect width="1200" height="630" fill="url(#bgGradient)"/>

  <!-- Grid pattern -->
  <g stroke="#00ff9f" stroke-opacity="0.1" stroke-width="1">
    <line x1="0" y1="0" x2="0" y2="630"/>
    <line x1="100" y1="0" x2="100" y2="630"/>
    <line x1="200" y1="0" x2="200" y2="630"/>
    <line x1="300" y1="0" x2="300" y2="630"/>
    <line x1="400" y1="0" x2="400" y2="630"/>
    <line x1="500" y1="0" x2="500" y2="630"/>
    <line x1="600" y1="0" x2="600" y2="630"/>
    <line x1="700" y1="0" x2="700" y2="630"/>
    <line x1="800" y1="0" x2="800" y2="630"/>
    <line x1="900" y1="0" x2="900" y2="630"/>
    <line x1="1000" y1="0" x2="1000" y2="630"/>
    <line x1="1100" y1="0" x2="1100" y2="630"/>
    <line x1="1200" y1="0" x2="1200" y2="630"/>
    <line x1="0" y1="0" x2="1200" y2="0"/>
    <line x1="0" y1="100" x2="1200" y2="100"/>
    <line x1="0" y1="200" x2="1200" y2="200"/>
    <line x1="0" y1="300" x2="1200" y2="300"/>
    <line x1="0" y1="400" x2="1200" y2="400"/>
    <line x1="0" y1="500" x2="1200" y2="500"/>
    <line x1="0" y1="630" x2="1200" y2="630"/>
  </g>

  <!-- Accent line -->
  <rect x="80" y="200" width="6" height="230" fill="url(#accentGradient)" rx="3"/>

  <!-- Main text -->
  <text x="120" y="280" font-family="monospace" font-size="72" font-weight="bold" fill="#ffffff">
    unorthod0xd
  </text>

  <!-- Subtitle -->
  <text x="120" y="350" font-family="monospace" font-size="32" fill="#00ff9f">
    Blockchain Security Engineer
  </text>

  <!-- Description -->
  <text x="120" y="410" font-family="sans-serif" font-size="24" fill="#888888">
    Smart Contract Auditing | DeFi Security | Web3
  </text>

  <!-- Domain -->
  <text x="120" y="560" font-family="monospace" font-size="28" fill="#00ff9f" opacity="0.8">
    unorthod0xd.xyz
  </text>

  <!-- Decorative nodes -->
  <circle cx="950" cy="150" r="4" fill="#00ff9f" opacity="0.6"/>
  <circle cx="1020" cy="200" r="3" fill="#00ff9f" opacity="0.4"/>
  <circle cx="1080" cy="130" r="5" fill="#00ff9f" opacity="0.5"/>
  <circle cx="1000" cy="280" r="3" fill="#00ff9f" opacity="0.3"/>
  <circle cx="1100" cy="250" r="4" fill="#00ff9f" opacity="0.5"/>

  <!-- Connection lines -->
  <line x1="950" y1="150" x2="1020" y2="200" stroke="#00ff9f" stroke-opacity="0.2" stroke-width="1"/>
  <line x1="1020" y1="200" x2="1080" y2="130" stroke="#00ff9f" stroke-opacity="0.2" stroke-width="1"/>
  <line x1="1020" y1="200" x2="1000" y2="280" stroke="#00ff9f" stroke-opacity="0.2" stroke-width="1"/>
  <line x1="1000" y1="280" x2="1100" y2="250" stroke="#00ff9f" stroke-opacity="0.2" stroke-width="1"/>
</svg>